<svg width="106" height="121" viewBox="0 0 106 121" fill="none" xmlns="http://www.w3.org/2000/svg">
<path fill-rule="evenodd" clip-rule="evenodd" d="M0.0120239 1.00601C0.0700239 1.57501 0.114024 2.10101 0.159024 2.62801C0.615024 7.72101 1.05602 12.82 1.51602 17.909C2.10102 24.38 2.68902 30.863 3.26402 37.334C3.75202 42.781 4.23302 48.232 4.71502 53.685C5.26402 59.82 5.81702 65.948 6.36602 72.092C6.84802 77.528 7.33202 82.99 7.81802 88.434C8.41002 95.07 9.01302 101.697 9.57902 108.332C9.61302 108.763 9.75202 108.944 10.175 109.057C24.233 113.017 38.281 116.978 52.322 120.929C52.674 121.024 53.1 121.02 53.454 120.929C67.56 116.978 81.651 113.026 95.759 109.083C96.239 108.944 96.386 108.737 96.42 108.263C96.727 104.57 97.068 100.877 97.392 97.184C97.751 93.111 98.127 89.03 98.486 84.944C98.814 81.299 99.134 77.657 99.467 74.007C99.834 69.926 100.197 65.845 100.56 61.768C100.879 58.12 101.208 54.479 101.537 50.829C101.899 46.765 102.262 42.701 102.625 38.637C102.954 34.978 103.273 31.322 103.61 27.655C103.973 23.591 104.336 19.525 104.699 15.461C105.028 11.759 105.36 8.04901 105.702 4.34701C105.797 3.22301 105.892 2.11001 105.996 0.971008C70.641 1.00601 35.371 1.00601 0.0120239 1.00601ZM85.069 36.158C68.161 36.158 51.268 36.158 34.312 36.158C34.712 40.723 35.105 45.238 35.494 49.774C51.639 49.774 67.737 49.774 83.889 49.774C83.773 50.734 83.621 51.638 83.535 52.553C83.31 54.854 83.094 57.16 82.891 59.458C82.52 63.627 82.157 67.808 81.793 71.98C81.47 75.72 81.15 79.452 80.817 83.197C80.605 85.561 80.372 87.925 80.173 90.281C80.139 90.652 79.901 90.66 79.681 90.73C73.959 92.3 68.247 93.879 62.526 95.441C59.389 96.312 56.261 97.193 53.113 98.055C52.973 98.098 52.778 98.073 52.627 98.021C43.752 95.587 34.878 93.145 26.011 90.721C25.605 90.613 25.597 90.367 25.569 90.074C25.344 87.226 25.117 84.405 24.905 81.557C24.609 77.744 24.309 73.921 24.007 70.099C23.998 70.004 23.998 69.883 23.989 69.745C28.371 69.745 32.742 69.745 37.136 69.745C37.246 70.987 37.365 72.23 37.473 73.447C37.668 75.612 37.862 77.774 38.048 79.953C38.065 80.194 38.141 80.297 38.378 80.367C43.14 81.635 47.893 82.921 52.662 84.198C52.83 84.241 53.033 84.224 53.206 84.18C57.903 82.921 62.599 81.644 67.305 80.392C67.591 80.315 67.716 80.185 67.742 79.892C68.26 74.352 68.783 68.805 69.319 63.273C69.319 63.256 69.31 63.239 69.302 63.174C53.977 63.174 38.648 63.174 23.278 63.174C22.079 49.783 20.885 36.441 19.685 23.06C41.919 23.06 64.06 23.06 86.309 23.06C85.903 27.424 85.484 31.766 85.069 36.158Z" fill="#D86518"/>
</svg>
