<?xml version="1.0" encoding="UTF-8"?>
<svg xmlns="http://www.w3.org/2000/svg" xmlns:xlink="http://www.w3.org/1999/xlink" width="62px" height="44px" viewBox="0 0 62 44" version="1.1">
<g id="surface1">
<path style=" stroke:none;fill-rule:nonzero;fill:rgb(100%,100%,100%);fill-opacity:1;" d="M 0 37.585938 C 0 34.042969 2.824219 31.171875 6.308594 31.171875 C 9.789062 31.171875 12.613281 34.042969 12.613281 37.585938 C 12.613281 41.128906 9.789062 44 6.308594 44 C 2.824219 44 0 41.128906 0 37.585938 Z M 0 37.585938 "/>
<path style=" stroke:none;fill-rule:nonzero;fill:rgb(100%,100%,100%);fill-opacity:1;" d="M 49.5 37.585938 C 49.5 41.128906 46.675781 44 43.195312 44 L 21.621094 43.996094 C 18.140625 43.996094 15.316406 41.128906 15.316406 37.585938 C 15.316406 34.042969 18.140625 31.171875 21.621094 31.171875 L 43.195312 31.175781 C 46.675781 31.175781 49.5 34.046875 49.5 37.585938 Z M 49.5 37.585938 "/>
<path style=" stroke:none;fill-rule:nonzero;fill:rgb(100%,100%,100%);fill-opacity:1;" d="M 55.613281 22.011719 C 55.613281 25.554688 52.789062 28.425781 49.308594 28.425781 L 12.609375 28.425781 C 9.128906 28.425781 6.304688 25.554688 6.304688 22.011719 C 6.304688 18.46875 9.128906 15.597656 12.609375 15.597656 L 49.308594 15.597656 C 52.789062 15.597656 55.613281 18.46875 55.613281 22.011719 Z M 55.613281 22.011719 "/>
<path style=" stroke:none;fill-rule:nonzero;fill:rgb(100%,100%,100%);fill-opacity:1;" d="M 62 6.414062 C 62 9.957031 59.175781 12.828125 55.691406 12.828125 L 18.921875 12.828125 C 15.4375 12.828125 12.613281 9.957031 12.613281 6.414062 C 12.613281 2.871094 15.4375 0 18.921875 0 L 55.691406 0 C 59.175781 0 62 2.871094 62 6.414062 Z M 62 6.414062 "/>
</g>
</svg>
